<mxfile host="app.diagrams.net" modified="2024-06-16T10:27:15.803Z" agent="Mozilla/5.0 (X11; Ubuntu; Linux x86_64; rv:123.0) Gecko/20100101 Firefox/123.0" etag="ZzjskJQAY95G-SkzCU5r" version="24.5.4" type="device">
  <diagram name="Page-1" id="pBYU73D_1HV7YgoVwspF">
    <mxGraphModel dx="1364" dy="795" grid="1" gridSize="10" guides="1" tooltips="1" connect="1" arrows="1" fold="1" page="1" pageScale="1" pageWidth="850" pageHeight="1100" math="0" shadow="0">
      <root>
        <mxCell id="0" />
        <mxCell id="1" parent="0" />
        <mxCell id="PdRIgPCuu8prFo5BbRnn-7" value="&lt;font style=&quot;font-size: 18px;&quot;&gt;Запрос на запись данных в хранилище&lt;/font&gt;" style="html=1;dashed=0;whiteSpace=wrap;" parent="1" vertex="1">
          <mxGeometry x="500" y="340" width="150" height="90" as="geometry" />
        </mxCell>
        <mxCell id="PdRIgPCuu8prFo5BbRnn-9" value="&lt;font style=&quot;font-size: 15px;&quot;&gt;Виртуальная машина&lt;/font&gt;" style="shape=ellipse;html=1;dashed=0;whiteSpace=wrap;aspect=fixed;perimeter=ellipsePerimeter;" parent="1" vertex="1">
          <mxGeometry x="255" y="337.5" width="95" height="95" as="geometry" />
        </mxCell>
        <mxCell id="PdRIgPCuu8prFo5BbRnn-10" value="&lt;font style=&quot;font-size: 18px;&quot;&gt;Хранилище ДСИ&lt;/font&gt;" style="html=1;dashed=0;whiteSpace=wrap;shape=partialRectangle;right=0;left=0;" parent="1" vertex="1">
          <mxGeometry x="1055" y="535" width="100" height="45" as="geometry" />
        </mxCell>
        <mxCell id="PdRIgPCuu8prFo5BbRnn-11" value="" style="endArrow=classic;html=1;rounded=0;exitX=1;exitY=0.5;exitDx=0;exitDy=0;entryX=0;entryY=0.5;entryDx=0;entryDy=0;" parent="1" source="PdRIgPCuu8prFo5BbRnn-9" target="PdRIgPCuu8prFo5BbRnn-7" edge="1">
          <mxGeometry width="50" height="50" relative="1" as="geometry">
            <mxPoint x="450" y="450" as="sourcePoint" />
            <mxPoint x="500" y="400" as="targetPoint" />
          </mxGeometry>
        </mxCell>
        <mxCell id="PdRIgPCuu8prFo5BbRnn-12" value="&lt;font style=&quot;font-size: 15px;&quot;&gt;Модуль&lt;br&gt;отображения памяти&lt;/font&gt;" style="shape=ellipse;html=1;dashed=0;whiteSpace=wrap;aspect=fixed;perimeter=ellipsePerimeter;" parent="1" vertex="1">
          <mxGeometry x="810" y="336.25" width="97.5" height="97.5" as="geometry" />
        </mxCell>
        <mxCell id="PdRIgPCuu8prFo5BbRnn-13" value="" style="endArrow=classic;html=1;rounded=0;exitX=1;exitY=0.5;exitDx=0;exitDy=0;entryX=0;entryY=0.5;entryDx=0;entryDy=0;" parent="1" source="PdRIgPCuu8prFo5BbRnn-7" target="PdRIgPCuu8prFo5BbRnn-12" edge="1">
          <mxGeometry width="50" height="50" relative="1" as="geometry">
            <mxPoint x="610" y="460" as="sourcePoint" />
            <mxPoint x="660" y="410" as="targetPoint" />
          </mxGeometry>
        </mxCell>
        <mxCell id="PdRIgPCuu8prFo5BbRnn-14" value="&lt;font style=&quot;font-size: 18px;&quot;&gt;Страницы памяти содержащие данные&lt;/font&gt;" style="text;html=1;align=center;verticalAlign=middle;whiteSpace=wrap;rounded=0;" parent="1" vertex="1">
          <mxGeometry x="350" y="320" width="130" height="30" as="geometry" />
        </mxCell>
        <mxCell id="PdRIgPCuu8prFo5BbRnn-16" value="&lt;font style=&quot;font-size: 18px;&quot;&gt;Запись данных в хранилище&lt;/font&gt;" style="html=1;dashed=0;whiteSpace=wrap;" parent="1" vertex="1">
          <mxGeometry x="1030" y="340" width="150" height="90" as="geometry" />
        </mxCell>
        <mxCell id="PdRIgPCuu8prFo5BbRnn-17" value="" style="endArrow=classic;html=1;rounded=0;exitX=0.5;exitY=1;exitDx=0;exitDy=0;entryX=0.5;entryY=0;entryDx=0;entryDy=0;" parent="1" source="PdRIgPCuu8prFo5BbRnn-16" target="PdRIgPCuu8prFo5BbRnn-10" edge="1">
          <mxGeometry width="50" height="50" relative="1" as="geometry">
            <mxPoint x="880" y="530" as="sourcePoint" />
            <mxPoint x="930" y="480" as="targetPoint" />
          </mxGeometry>
        </mxCell>
        <mxCell id="PdRIgPCuu8prFo5BbRnn-18" value="&lt;font style=&quot;font-size: 18px;&quot;&gt;Данные&lt;/font&gt;" style="text;html=1;align=center;verticalAlign=middle;whiteSpace=wrap;rounded=0;" parent="1" vertex="1">
          <mxGeometry x="1120" y="460" width="60" height="30" as="geometry" />
        </mxCell>
        <mxCell id="PdRIgPCuu8prFo5BbRnn-20" value="" style="endArrow=classic;html=1;rounded=0;exitX=1;exitY=0.5;exitDx=0;exitDy=0;entryX=0;entryY=0.5;entryDx=0;entryDy=0;" parent="1" source="PdRIgPCuu8prFo5BbRnn-12" target="PdRIgPCuu8prFo5BbRnn-16" edge="1">
          <mxGeometry width="50" height="50" relative="1" as="geometry">
            <mxPoint x="850" y="420" as="sourcePoint" />
            <mxPoint x="900" y="370" as="targetPoint" />
          </mxGeometry>
        </mxCell>
        <mxCell id="PdRIgPCuu8prFo5BbRnn-21" value="&lt;font style=&quot;font-size: 18px;&quot;&gt;Данные&lt;/font&gt;" style="text;html=1;align=center;verticalAlign=middle;whiteSpace=wrap;rounded=0;" parent="1" vertex="1">
          <mxGeometry x="930" y="350" width="60" height="30" as="geometry" />
        </mxCell>
        <mxCell id="PdRIgPCuu8prFo5BbRnn-22" value="" style="endArrow=classic;html=1;rounded=0;exitX=1;exitY=0.5;exitDx=0;exitDy=0;entryX=0;entryY=0.5;entryDx=0;entryDy=0;" parent="1" source="PdRIgPCuu8prFo5BbRnn-16" target="PdRIgPCuu8prFo5BbRnn-23" edge="1">
          <mxGeometry width="50" height="50" relative="1" as="geometry">
            <mxPoint x="850" y="420" as="sourcePoint" />
            <mxPoint x="1323.3333333333333" y="385" as="targetPoint" />
          </mxGeometry>
        </mxCell>
        <mxCell id="PdRIgPCuu8prFo5BbRnn-23" value="&lt;font style=&quot;font-size: 18px;&quot;&gt;Выделить новые страницы памяти для выходных данных&lt;/font&gt;" style="html=1;dashed=0;whiteSpace=wrap;" parent="1" vertex="1">
          <mxGeometry x="1380" y="340" width="150" height="90" as="geometry" />
        </mxCell>
        <mxCell id="PdRIgPCuu8prFo5BbRnn-24" value="&lt;font style=&quot;font-size: 18px;&quot;&gt;Результат выполнения операции&lt;/font&gt;" style="text;html=1;align=center;verticalAlign=middle;whiteSpace=wrap;rounded=0;" parent="1" vertex="1">
          <mxGeometry x="1190" y="336.25" width="180" height="30" as="geometry" />
        </mxCell>
        <mxCell id="PdRIgPCuu8prFo5BbRnn-25" value="" style="endArrow=classic;html=1;rounded=0;exitX=0.5;exitY=0;exitDx=0;exitDy=0;entryX=0.5;entryY=0;entryDx=0;entryDy=0;" parent="1" source="PdRIgPCuu8prFo5BbRnn-23" target="PdRIgPCuu8prFo5BbRnn-9" edge="1">
          <mxGeometry width="50" height="50" relative="1" as="geometry">
            <mxPoint x="1560" y="385" as="sourcePoint" />
            <mxPoint x="400" y="240" as="targetPoint" />
            <Array as="points">
              <mxPoint x="1455" y="240" />
              <mxPoint x="960" y="240" />
              <mxPoint x="303" y="240" />
            </Array>
          </mxGeometry>
        </mxCell>
        <mxCell id="PdRIgPCuu8prFo5BbRnn-28" value="&lt;font style=&quot;font-size: 18px;&quot;&gt;Страницы памяти содержащие результат выполнения операции&lt;/font&gt;" style="text;html=1;align=center;verticalAlign=middle;whiteSpace=wrap;rounded=0;" parent="1" vertex="1">
          <mxGeometry x="610" y="210" width="560" height="30" as="geometry" />
        </mxCell>
        <mxCell id="PdRIgPCuu8prFo5BbRnn-29" value="&lt;font style=&quot;font-size: 18px;&quot;&gt;Страницы памяти содержащие данные&lt;/font&gt;" style="text;html=1;align=center;verticalAlign=middle;whiteSpace=wrap;rounded=0;" parent="1" vertex="1">
          <mxGeometry x="670" y="320" width="130" height="30" as="geometry" />
        </mxCell>
      </root>
    </mxGraphModel>
  </diagram>
</mxfile>
